<svg xmlns:xlink="http://www.w3.org/1999/xlink" width="60" xmlns="http://www.w3.org/2000/svg" height="42" id="screenshot-30a4d04e-d497-8031-8001-a2a39eaa7c63" viewBox="0 0 60 42" style="-webkit-print-color-adjust: exact;" fill="none" version="1.1"><g id="shape-30a4d04e-d497-8031-8001-a2a39eaa7c63" rx="0" ry="0"><g id="shape-30a4d04e-d497-8031-8001-a2a2e0e0f46b"><g id="fills-30a4d04e-d497-8031-8001-a2a2e0e0f46b"><rect rx="3.499999896432678" ry="3.499999896432678" x="3.178041652063257e-8" y="22.00000019828782" transform="matrix(1,0,0,1,0,0)" width="59.99999987929482" height="6.999999792865356" style="fill: rgb(114, 76, 9); fill-opacity: 1;"/></g></g><g id="shape-30a4d04e-d497-8031-8001-a2a316ba9712"><g id="fills-30a4d04e-d497-8031-8001-a2a316ba9712"><rect rx="2.4999998649789856" ry="2.4999998649789856" x="2.257161213492509e-8" y="19.00000014427941" transform="matrix(1,0,0,1,0,-0.000001)" width="59.999999936439195" height="4.999999729957971" style="fill: rgb(129, 42, 22); fill-opacity: 1;"/></g></g><g id="shape-30a4d04e-d497-8031-8001-a2a346368b19"><g id="fills-30a4d04e-d497-8031-8001-a2a346368b19"><rect rx="2.4999998649789856" ry="2.4999998649789856" x="2.257158371321566e-8" y="27.000000197184526" transform="matrix(1,0,0,1,0,-0.000001)" width="59.999999936439195" height="4.999999729957971" style="fill: rgb(129, 42, 22); fill-opacity: 1;"/></g></g><g id="shape-30a4d04e-d497-8031-8001-a2a2b41df17c"><g id="fills-30a4d04e-d497-8031-8001-a2a2b41df17c"><path d="M17.272727023739968,1.956491963994722e-7 h25.454545942669327 a17.27272693383491,17.27272693383491 0 0 1 17.27272693383491,17.27272693383491 v-6.661338147750939e-16 a1.727272693383491,1.727272693383491 0 0 1 -1.727272693383491,1.727272693383491 h-56.54545442357217 a1.727272693383491,1.727272693383491 0 0 1 -1.727272693383491,-1.727272693383491 v0 a17.27272693383491,17.27272693383491 0 0 1 17.27272693383491,-17.27272693383491 z" x="8.990505762085377e-8" y="1.956491963994722e-7" transform="matrix(1,0,0,1,0,0)" width="59.99999981033915" height="18.9999996272184" style="fill: rgb(206, 173, 113); fill-opacity: 1;"/></g></g><g id="shape-30a4d04e-d497-8031-8001-a2a2c614b0ed"><g id="fills-30a4d04e-d497-8031-8001-a2a2c614b0ed"><path d="M1.8333333489604908,31.00000017200704 h56.33333332112721 a1.8333332790837855,1.8333332790837855 0 0 1 1.8333332790837855,1.8333332790837855 v1.7763568394002505e-15 a9.166666395418927,9.166666395418927 0 0 1 -9.166666395418927,9.166666395418927 h-41.66666708845693 a9.166666395418927,9.166666395418927 0 0 1 -9.166666395418927,-9.166666395418927 v-1.3322676295501878e-15 a1.8333332790837855,1.8333332790837855 0 0 1 1.8333332790837855,-1.8333332790837855 z" x="6.987670531088952e-8" y="31.00000017200704" transform="matrix(1,0,0,1,0,0)" width="59.99999987929479" height="10.999999674502714" style="fill: rgb(206, 173, 113); fill-opacity: 1;"/></g></g><g id="shape-30a4d04e-d497-8031-8001-a2a351537a97"><g id="fills-30a4d04e-d497-8031-8001-a2a351537a97"><ellipse rx="1.5" ry="1.5000000000004547" cx="10.5" cy="9.500000009258851" transform="matrix(1,0,0,1,0,0)" style="fill: rgb(247, 225, 196); fill-opacity: 1;"/></g></g><g id="shape-30a4d04e-d497-8031-8001-a2a358707c66"><g id="fills-30a4d04e-d497-8031-8001-a2a358707c66"><ellipse rx="1.5" ry="1.5000000000004547" cx="16.5" cy="13.500000009258853" transform="matrix(1,0,0,1,0,0)" style="fill: rgb(247, 225, 196); fill-opacity: 1;"/></g></g><g id="shape-30a4d04e-d497-8031-8001-a2a387644dbe"><g id="fills-30a4d04e-d497-8031-8001-a2a387644dbe"><ellipse rx="1.5" ry="1.5000000000004547" cx="14.5" cy="35.500000009258855" transform="matrix(1,0,0,1,0.000001,0)" style="fill: rgb(247, 225, 196); fill-opacity: 1;"/></g></g><g id="shape-30a4d04e-d497-8031-8001-a2a35a9b3bd6"><g id="fills-30a4d04e-d497-8031-8001-a2a35a9b3bd6"><ellipse rx="1.5" ry="1.5000000000004547" cx="20.5" cy="6.500000009258853" transform="matrix(1,0,0,1,0,0)" style="fill: rgb(247, 225, 196); fill-opacity: 1;"/></g></g><g id="shape-30a4d04e-d497-8031-8001-a2a36406b7da"><g id="fills-30a4d04e-d497-8031-8001-a2a36406b7da"><ellipse rx="1.5" ry="1.5000000000004547" cx="27.5" cy="13.500000009258853" transform="matrix(1,0,0,1,0,-0.000001)" style="fill: rgb(247, 225, 196); fill-opacity: 1;"/></g></g><g id="shape-30a4d04e-d497-8031-8001-a2a387644dbf"><g id="fills-30a4d04e-d497-8031-8001-a2a387644dbf"><ellipse rx="1.5" ry="1.5000000000004547" cx="26.5" cy="38.500000009258855" transform="matrix(1,0,0,1,0.000001,-0.000001)" style="fill: rgb(247, 225, 196); fill-opacity: 1;"/></g></g><g id="shape-30a4d04e-d497-8031-8001-a2a366d28dec"><g id="fills-30a4d04e-d497-8031-8001-a2a366d28dec"><ellipse rx="1.5" ry="1.5000000000004547" cx="35.5" cy="8.500000009258853" transform="matrix(1,0,0,1,0,-0.000001)" style="fill: rgb(247, 225, 196); fill-opacity: 1;"/></g></g><g id="shape-30a4d04e-d497-8031-8001-a2a387644dc0"><g id="fills-30a4d04e-d497-8031-8001-a2a387644dc0"><ellipse rx="1.5" ry="1.5000000000004547" cx="37.5" cy="34.500000009258855" transform="matrix(1,0,0,1,0.000001,-0.000001)" style="fill: rgb(247, 225, 196); fill-opacity: 1;"/></g></g><g id="shape-30a4d04e-d497-8031-8001-a2a37110bbce"><g id="fills-30a4d04e-d497-8031-8001-a2a37110bbce"><ellipse rx="1.5" ry="1.5000000000004547" cx="43.5" cy="14.500000009258853" transform="matrix(1,0,0,1,0,-0.000001)" style="fill: rgb(247, 225, 196); fill-opacity: 1;"/></g></g><g id="shape-30a4d04e-d497-8031-8001-a2a387644dc1"><g id="fills-30a4d04e-d497-8031-8001-a2a387644dc1"><ellipse rx="1.5" ry="1.5000000000004547" cx="49.5" cy="37.500000009258855" transform="matrix(1,0,0,1,0.000001,-0.000001)" style="fill: rgb(247, 225, 196); fill-opacity: 1;"/></g></g><g id="shape-30a4d04e-d497-8031-8001-a2a374646de2"><g id="fills-30a4d04e-d497-8031-8001-a2a374646de2"><ellipse rx="1.5" ry="1.5000000000004547" cx="50.5" cy="8.500000009258853" transform="matrix(1,0,0,1,0,-0.000001)" style="fill: rgb(247, 225, 196); fill-opacity: 1;"/></g></g></g></svg>